<?xml version="1.0" encoding="UTF-8" standalone="no"?>
<svg
   xmlns:dc="http://purl.org/dc/elements/1.1/"
   xmlns:cc="http://creativecommons.org/ns#"
   xmlns:rdf="http://www.w3.org/1999/02/22-rdf-syntax-ns#"
   xmlns:svg="http://www.w3.org/2000/svg"
   xmlns="http://www.w3.org/2000/svg"
   xmlns:sodipodi="http://sodipodi.sourceforge.net/DTD/sodipodi-0.dtd"
   xmlns:inkscape="http://www.inkscape.org/namespaces/inkscape"
   width="12.67061mm"
   height="11.617837mm"
   viewBox="0 0 12.67061 11.617837"
   version="1.1"
   id="svg8"
   inkscape:version="1.0.2-2 (e86c870879, 2021-01-15)"
   sodipodi:docname="blackCat.svg">
  <defs
     id="defs2" />
  <sodipodi:namedview
     id="base"
     pagecolor="#ffffff"
     bordercolor="#666666"
     borderopacity="1.0"
     inkscape:pageopacity="0.0"
     inkscape:pageshadow="2"
     inkscape:zoom="0.35"
     inkscape:cx="-190.34124"
     inkscape:cy="30.526386"
     inkscape:document-units="mm"
     inkscape:current-layer="layer1"
     inkscape:document-rotation="0"
     showgrid="false"
     fit-margin-top="0"
     fit-margin-left="0"
     fit-margin-right="0"
     fit-margin-bottom="0"
     inkscape:window-width="1258"
     inkscape:window-height="728"
     inkscape:window-x="92"
     inkscape:window-y="0"
     inkscape:window-maximized="0" />
  <metadata
     id="metadata5">
    <rdf:RDF>
      <cc:Work
         rdf:about="">
        <dc:format>image/svg+xml</dc:format>
        <dc:type
           rdf:resource="http://purl.org/dc/dcmitype/StillImage" />
        <dc:title></dc:title>
      </cc:Work>
    </rdf:RDF>
  </metadata>
  <g
     inkscape:label="Capa 1"
     inkscape:groupmode="layer"
     id="layer1"
     transform="translate(-156.19445,-140.08989)">
    <g
       id="g24"
       transform="matrix(0.37332383,0,0,0.37332383,155.82113,139.71657)">
      <ellipse
         cx="17.98"
         cy="31.549999"
         fill="rgba(60,60,60,0.3)"
         rx="14.75"
         ry="0.56999999"
         id="ellipse10" />
      <path
         fill="%23fff"
         d="m 34.94,15 v -0.93 c -0.23,-3 -2.16,-5.93 -5.22,-6.3 -2.31,-0.28 -3.39,1.45 -2.4,3.84 a 0.43,0.43 0 0 0 0,0.05 v 0.11 a 0.14,0.14 0 0 1 0,0.06 0.63,0.63 0 0 0 0,0.09 v 0.17 c 0,0.08 0.06,0.18 0.09,0.29 0.03,0.11 0,0 0,0.05 a 1,1 0 0 0 0,0.17 0.64,0.64 0 0 1 0,0.07 c 0,0.18 0.1,0.38 0.14,0.6 a 0.24,0.24 0 0 1 0,0.08 v 0.29 c 0,0.03 0.06,0.33 0.08,0.5 0.37,2.58 0,6.27 -4.73,7.37 A 12.74,12.74 0 0 0 19.7,23 C 19.53,22.35 19.34,21.75 19.15,21.23 A 5.16,5.16 0 0 0 21.2,18.67 11.26,11.26 0 0 1 20.51,21 c 1.81,-1.55 2,-5.05 2,-5.54 a 4.72,4.72 0 0 1 0.21,2 c 1.55,-2.41 -1.17,-6 -1.17,-6 a 9.67,9.67 0 0 1 1.84,2.24 C 23,11.75 20.82,10 20.82,10 c 2.65,-4 2.51,-5.68 2.51,-5.68 -3.26,-1.34 -7,0.73 -7,0.73 a 5.12,5.12 0 0 0 -4,-1.7 3.61,3.61 0 0 1 1.56,1 16.79,16.79 0 0 0 -3.23,-0.74 C 10.41,3 9.4,1.16 6.22,1 H 5.64 C 5.64,1 5,3.64 5.61,5.19 4.46,5.68 4.35,6.12 4.35,6.12 L 5.52,5.87 4.85,8.54 A 4.66,4.66 0 0 0 2.46,9.92 3,3 0 0 1 3.61,9.85 5.11,5.11 0 0 0 1,13.05 1.32,1.32 0 0 1 1.87,12.54 C 0.4,15.23 2.36,16.3 2.36,16.3 a 3.8,3.8 0 0 1 0,-0.92 8.52,8.52 0 0 0 2.19,3.9 14.13,14.13 0 0 1 -0.24,-1.59 5.46,5.46 0 0 0 1.93,2.7 6.25,6.25 0 0 1 -0.4,-1.52 5.87,5.87 0 0 0 1.36,1.75 c -0.12,0.24 -0.24,0.47 -0.34,0.71 a 12,12 0 0 0 -0.7,2.13 c 0,0.23 -0.09,0.45 -0.13,0.66 a 1.4,1.4 0 0 0 -1,-0.31 1.4,1.4 0 0 0 -1.09,1 3.1,3.1 0 0 0 0,1.57 9.48,9.48 0 0 0 1.8,3.92 A 2.92,2.92 0 0 0 4,30.06 C 3.44,30.22 3,30.89 3.28,31.4 H 22.6 c 0.29,-0.51 -0.16,-1.18 -0.72,-1.34 A 2.92,2.92 0 0 0 20.17,30.3 9.48,9.48 0 0 0 22,26.44 3.24,3.24 0 0 0 22,25 15.89,15.89 0 0 1 24.87,24.79 14.93,14.93 0 0 0 29.52,24.1 c 3.72,-1.24 5.38,-5.25 5.38,-9 z M 22.45,15.42 H 22.4 v -0.07 z"
         id="path12" />
    </g>
  </g>
</svg>
